# WaveFront *.obj file (generated by CINEMA 4D)

mtllib ./caudatehead.mtl

v 290.12008700000001 111.40041400000000 -199.31405599999999
v 262.53219600000000 -64.16774700000001 -204.15170300000000
v 243.74682600000000 -20.42830100000000 -226.08927900000000
v 233.50647000000001 1.24121500000000 -231.22784400000000
v 220.62730400000001 161.07377600000001 -239.57807900000000
v 235.18354800000000 165.90414400000000 -228.50888100000000
v 244.72512800000001 163.59164400000000 -214.37029999999999
v 220.08251999999999 176.21574400000000 -215.36442600000001
v 202.29988100000000 149.36232000000001 -245.19842499999999
v 230.81614700000000 174.01721200000000 -203.23150600000000
v 236.62959300000000 167.29280100000000 -190.91081199999999
v 250.41894500000001 150.53701799999999 -187.29315199999999
v 239.36680600000000 159.55270400000001 -179.48719800000001
v 189.55828900000000 159.34881600000000 -227.34179700000001
v 249.14210499999999 157.54455600000000 -200.42041000000000
v 262.71438599999999 139.18296799999999 -193.42941300000001
v 175.25187700000001 141.76295500000001 -222.14030500000001
v 205.29280100000000 170.93672200000000 -224.11450199999999
v 251.57311999999999 151.17027300000001 -238.62316899999999
v 304.44528200000002 95.20327800000000 -201.12712099999999
v 276.28686499999998 126.31655100000000 -197.37458799999999
v 259.00595099999998 149.33641100000000 -223.40448000000001
v 262.31185900000003 144.75135800000001 -208.24447599999999
v 168.46638500000000 122.58989000000000 -207.49046300000001
v 274.69668600000000 134.08889800000000 -230.22882100000001
v 276.57214399999998 130.60525500000000 -213.65437299999999
v 288.69018599999998 116.57156400000000 -234.23225400000001
v 290.59210200000001 114.84913600000000 -217.07566800000001
v 187.22460899999999 130.34495500000000 -237.94584699999999
v 319.83746300000001 77.23477200000001 -203.73440600000001
v 179.11729399999999 110.50700399999999 -219.63865699999999
v 190.02330000000001 98.25497400000000 -231.89979600000001
v 302.55248999999998 99.13300300000000 -237.04252600000001
v 304.19296300000002 97.82278400000000 -219.09934999999999
v 317.34866299999999 80.19335900000000 -221.81233200000000
v 213.76287800000000 39.99074600000000 -228.80619799999999
v 201.81491100000000 55.72466300000000 -223.17309599999999
v 175.75807200000000 110.12229900000000 -186.97535700000000
v 182.43785099999999 97.56132500000000 -196.20782500000001
v 188.64565999999999 84.20828200000000 -204.55618300000000
v 333.55700700000000 56.59248000000000 -209.26652500000000
v 330.93371600000000 47.90184000000000 -241.24871800000000
v 193.63015700000000 69.99324000000000 -214.41655000000000
v 324.21283000000000 62.77328900000000 -240.86238100000000
v 336.61953699999998 42.03217300000000 -232.09242200000000
v 344.77478000000002 33.69376800000000 -217.04177899999999
v 329.31601000000001 60.92775700000000 -225.48495500000001
v 338.45166000000000 23.40002800000000 -241.17312600000000
v 348.41296399999999 10.03315400000000 -227.16752600000001
v 222.52969400000001 21.36195000000000 -232.79295300000001
v 253.71241800000001 -42.57984200000000 -216.96087600000001
v 312.87564099999997 -52.72509400000000 -239.35830700000000
v 275.12640399999998 -39.52920200000000 -240.56793200000001
v 288.72482300000001 -57.95886200000000 -222.00160199999999
v 334.22403000000003 -35.12831100000000 -243.22375500000001
v 344.59921300000002 -13.28941900000000 -235.85047900000001
v 219.78462200000001 136.16267400000001 -258.66995200000002
v 238.03727699999999 147.18492100000000 -251.55734300000000
v 255.70030199999999 102.68880500000000 -278.64868200000001
v 273.95294200000001 112.76992799999999 -266.49206500000003
v 256.47839399999998 131.27235400000001 -260.92718500000001
v 268.83230600000002 135.47363300000001 -246.65942400000000
v 283.74203499999999 116.31713900000000 -251.10879499999999
v 200.00807200000000 84.46056400000001 -244.11570699999999
v 245.72430399999999 65.98654200000000 -284.28353900000002
v 272.62237499999998 82.96657600000000 -282.68618800000002
v 288.79980499999999 92.39608000000000 -269.99691799999999
v 308.98556500000001 77.17922200000000 -254.90974399999999
v 297.87204000000003 97.32765200000000 -253.47776800000000
v 313.72473100000002 80.06576500000000 -238.33528100000001
v 328.70980800000001 39.13060400000000 -251.46072400000000
v 320.69317599999999 57.77553900000000 -254.72285500000001
v 225.08485400000001 50.56391100000000 -261.28140300000001
v 321.88705399999998 25.62772400000000 -261.83273300000002
v 320.14450099999999 -13.77101100000000 -258.59258999999997
v 332.13632200000001 5.05843600000000 -251.17758200000000
v 262.21847500000001 -16.60685200000000 -253.32913199999999
v 297.27966300000003 35.22403000000000 -278.31063799999998
v 285.00186200000002 59.23622500000000 -282.32830799999999
v 301.34042399999998 70.81729100000000 -269.73944100000000
v 312.03417999999999 48.15722700000000 -268.95449800000000
v 273.88562000000002 19.48061900000000 -278.47634900000003
v 237.39482100000001 29.39491700000000 -263.44879200000003
v 250.38980100000001 7.37534400000000 -260.60931399999998
v 299.12411500000002 -31.14369000000000 -258.08865400000002
v 216.19209300000000 103.25841500000000 -264.95388800000001
v 237.86604299999999 120.98815200000000 -270.07403599999998
v 201.29512000000000 117.39320400000000 -251.62100200000000
v 211.49360700000000 68.35452300000000 -254.73582500000001
v 307.62558000000001 10.24987000000000 -270.38162199999999
v 286.27679400000000 -5.83109400000000 -270.29522700000001
v 231.33216899999999 86.27888500000000 -277.32293700000002
v 261.41128500000002 44.55155200000000 -284.10730000000001
# 93 vertices

vn -0.65119294785350 -0.39236747298474 -0.64961181547862
vn -0.21488455186781 -0.21545426797034 -0.95257760197368
vn -0.13948420865282 -0.31239824781716 -0.93965498471368
vn -0.57826750324132 -0.45419081145107 -0.67772959319221
vn -0.07770982298561 -0.41144540449976 -0.90811555571280
vn 0.34022563498320 -0.06203710825949 -0.93829521713535
vn 0.39994621314973 -0.17422753397224 -0.89982653494612
vn 0.29606410542023 0.07792366212095 -0.95198421644656
vn 0.61483698244985 0.30845608886703 -0.72583078348388
vn 0.63947726991646 0.16947810801234 -0.74989732108119
vn -0.51482695367675 -0.52695989635956 -0.67621481453502
vn -0.00542635583379 -0.55676891432448 -0.83064970396931
vn 0.47043586797640 -0.25593524105032 -0.84450414238759
vn 0.72913710247486 -0.01887398347238 -0.68410734431261
vn 0.68180020226494 0.03052169340787 -0.73090143687299
vn 0.78652811010383 0.35320558822472 -0.50657609938028
vn 0.82470802343197 0.21545859687231 -0.52290942726322
vn 0.76914171076353 0.45138596663261 -0.45240660681615
vn 0.74356483321467 0.52640331759405 -0.41232376360382
vn 0.56700257885367 0.42960585960608 -0.70281354637301
vn 0.20325984274954 0.23295259503507 -0.95100921383121
vn -0.71646943026035 -0.34357501187805 -0.60714723643890
vn -0.33643569849496 -0.08975776845148 -0.93741909719229
vn -0.77623077889207 -0.27936785219010 -0.56517199246185
vn -0.47673233253504 0.02925787237063 -0.87856147196428
vn -0.59204648811117 0.06551946576325 -0.80323605217976
vn -0.84370908057639 -0.20873782770823 -0.49455384604368
vn 0.29346343185604 0.62813673928141 -0.72064100003274
vn 0.58688207699107 0.70516033444909 -0.39789236035177
vn 0.68043469362655 0.61448209556663 -0.39927482006430
vn 0.44708535614920 0.54390659939537 -0.71012695727673
vn 0.03263863282884 0.35988534674218 -0.93242546986197
vn -0.14420045313094 0.40787937777045 -0.90157675353040
vn 0.14252985371611 0.68834528205350 -0.71124258412609
vn -0.28724525066825 0.41564736765840 -0.86297591607598
vn -0.66728293138370 0.02715230329810 -0.74430923809233
vn 0.75703877141117 -0.02804372084546 -0.65276783644831
vn 0.50702097535869 -0.29849750748934 -0.80859691352921
vn -0.39914385315345 -0.65278829503237 -0.64385683685005
vn 0.03129189238016 -0.63948360151778 -0.76816765153261
vn -0.32308091440436 -0.71927926090641 -0.61502525767448
vn 0.85513990339812 0.16814143484657 -0.49037149540323
vn 0.86890976607974 0.16743190732932 -0.46579220132944
vn 0.88797361511972 0.35135263542218 -0.29673925327313
vn 0.89328339777146 0.36293544187481 -0.26518415544109
vn 0.81692549762679 0.52425219654199 -0.24040042792830
vn 0.83685851826874 0.45393267669747 -0.30596232681054
vn 0.86879643988588 0.34216247257703 -0.35793517346245
vn 0.85607215923980 0.48854113996962 -0.16872466545139
vn -0.80533124055144 -0.40503708050566 -0.43288168869488
vn -0.83262166293620 -0.38701178197798 -0.39618562192435
vn -0.77815624308334 -0.41514627328154 -0.47130291016592
vn 0.81875738910159 0.56855342986578 -0.07989577698104
vn 0.79107939277978 0.61170361364056 0.00347611539798
vn 0.79897659830177 0.57552230223541 -0.17438599426498
vn -0.86941020427978 -0.25545577598011 -0.42292817736890
vn -0.87226727596576 -0.32838906712756 -0.36236779640354
vn -0.73283966820891 0.04112675922129 -0.67915727955711
vn 0.76662072163304 0.63862577265061 0.06670675879738
vn 0.76426335213714 0.63327081689043 -0.12194097365132
vn 0.71868563622120 0.69035095863761 -0.08310541617401
vn 0.73719491606181 0.66625543858398 0.11246042099289
vn 0.66939852116972 0.73913005208771 -0.07478225696391
vn 0.72300070056186 0.67576670209214 0.14355957415155
vn 0.47587997231653 0.77943744190374 -0.40745002896868
vn -0.87873035020774 -0.34528904898432 -0.32955795283272
vn -0.76821156162791 0.08125629581747 -0.63501843356805
vn -0.50120992914505 0.51352341464588 -0.69647850615568
vn -0.42698142118296 0.46746388281161 -0.77405709365089
vn 0.35484058803480 0.84320910369074 -0.40383977582225
vn 0.61551194229817 0.78519104440080 -0.06797111652097
vn -0.02031710324507 0.74858908118497 -0.66272287032090
vn -0.12173002192951 0.78358237640383 -0.60924581340406
vn 0.26735191776730 0.88566253049876 -0.37963776700518
vn -0.71789212705781 -0.47414241344692 -0.50972528452014
vn -0.50894009722990 -0.63440668154117 -0.58181452357907
vn -0.65702386167264 -0.52796293475752 -0.53812153340579
vn -0.40291447300246 -0.68731339240599 -0.60436762658544
vn -0.90044314813080 -0.30116835619138 -0.31384671133100
vn 0.85998822794802 0.49793285550072 -0.11172788015409
vn -0.90949084788442 -0.35261631947838 -0.22020020175286
vn -0.87243414378239 -0.47058487182858 -0.13194143840644
vn -0.85407309799122 -0.51366906801760 -0.08187326700217
vn 0.81069210372891 0.58542891654030 -0.00716216657478
vn 0.73064351386166 0.65689677273648 0.18613620179933
vn 0.75607669181538 0.63977111157283 0.13798898829391
vn 0.77549997215326 0.62702963523399 0.07371315844970
vn 0.72517733796677 0.65086214253667 0.22471381780389
vn 0.70931588932028 0.68379365750620 0.17116425769440
vn 0.72387652370375 0.64066318893786 0.25603409298478
vn 0.68809354647926 0.70026153780155 0.19016058994806
vn 0.71376032765737 0.64588321276503 0.27088940571896
vn 0.56502984557941 0.82362304082614 -0.04885038612760
# 93 normals

vt 0.10379099845886 0.63705301284790 0.00000000000000
vt 0.10630699992180 0.61755001544952 0.00000000000000
vt 0.08806099742651 0.61633098125458 0.00000000000000
vt 0.08729500323534 0.63832199573517 0.00000000000000
vt 0.12778800725937 0.60484302043915 0.00000000000000
vt 0.10853099822998 0.60080099105835 0.00000000000000
vt 0.12530499696732 0.62021791934967 0.00000000000000
vt 0.08959200233221 0.59937691688538 0.00000000000000
vt 0.82433801889420 0.40361696481705 0.00000000000000
vt 0.82305300235748 0.38606196641922 0.00000000000000
vt 0.80983501672745 0.38946300745010 0.00000000000000
vt 0.80939197540283 0.40487700700760 0.00000000000000
vt 0.12155199795961 0.63866496086121 0.00000000000000
vt 0.14843699336052 0.60929298400879 0.00000000000000
vt 0.14536899328232 0.62464201450348 0.00000000000000
vt 0.80744600296021 0.37386798858643 0.00000000000000
vt 0.82053697109222 0.36830198764801 0.00000000000000
vt 0.81494200229645 0.35056596994400 0.00000000000000
vt 0.80274498462677 0.35897600650787 0.00000000000000
vt 0.79721099138260 0.37918496131897 0.00000000000000
vt 0.79795300960541 0.39173001050949 0.00000000000000
vt 0.79796200990677 0.40553396940231 0.00000000000000
vt 0.80928599834442 0.42006999254227 0.00000000000000
vt 0.79690897464752 0.41956096887589 0.00000000000000
vt 0.82351899147034 0.42096298933029 0.00000000000000
vt 0.07129699736834 0.61940002441406 0.00000000000000
vt 0.07193099707365 0.64161396026611 0.00000000000000
vt 0.05581200122833 0.62440192699432 0.00000000000000
vt 0.05814800038934 0.64741897583008 0.00000000000000
vt 0.07100299745798 0.59965598583221 0.00000000000000
vt 0.04584899917245 0.65436601638794 0.00000000000000
vt 0.04152299836278 0.63300693035126 0.00000000000000
vt 0.80772197246552 0.43555396795273 0.00000000000000
vt 0.79606002569199 0.43412399291992 0.00000000000000
vt 0.79419797658920 0.44915997982025 0.00000000000000
vt 0.80594897270203 0.45159500837326 0.00000000000000
vt 0.05341700091958 0.60568392276764 0.00000000000000
vt 0.03707899898291 0.61501002311707 0.00000000000000
vt 0.82263600826263 0.43817698955536 0.00000000000000
vt 0.81979298591614 0.45555800199509 0.00000000000000
vt 0.81638097763062 0.47205197811127 0.00000000000000
vt 0.80302602052689 0.46757698059082 0.00000000000000
vt 0.02300399914384 0.62580597400665 0.00000000000000
vt 0.02897799946368 0.64260196685791 0.00000000000000
vt 0.80669897794724 0.33381396532059 0.00000000000000
vt 0.79466098546982 0.34440398216248 0.00000000000000
vt 0.14055599272251 0.64207100868225 0.00000000000000
vt 0.16015000641346 0.64675700664520 0.00000000000000
vt 0.16605100035667 0.63033294677734 0.00000000000000
vt 0.16971799731255 0.61488401889801 0.00000000000000
vt 0.79183900356293 0.36743301153183 0.00000000000000
vt 0.78417199850082 0.35655796527863 0.00000000000000
vt 0.77483499050140 0.37032598257065 0.00000000000000
vt 0.78383600711823 0.37783199548721 0.00000000000000
vt 0.78844797611237 0.39289700984955 0.00000000000000
vt 0.78670799732208 0.40532398223877 0.00000000000000
vt 0.78945398330688 0.38289397954941 0.00000000000000
vt 0.77856802940369 0.39012700319290 0.00000000000000
vt 0.06010299921036 0.67096102237701 0.00000000000000
vt 0.07226999849081 0.66501998901367 0.00000000000000
vt 0.08559499680996 0.66039800643921 0.00000000000000
vt 0.77596497535706 0.40429496765137 0.00000000000000
vt 0.78600299358368 0.41902399063110 0.00000000000000
vt 0.77456498146057 0.41814297437668 0.00000000000000
vt 0.03512400016189 0.66173899173737 0.00000000000000
vt 0.01745799928904 0.65178799629211 0.00000000000000
vt 0.02508199959993 0.66948902606964 0.00000000000000
vt 0.78496801853180 0.43298900127411 0.00000000000000
vt 0.77404397726059 0.43197196722031 0.00000000000000
vt 0.78350198268890 0.44708800315857 0.00000000000000
vt 0.77293801307678 0.44547700881958 0.00000000000000
vt 0.77087897062302 0.45839101076126 0.00000000000000
vt 0.78087699413300 0.46121001243591 0.00000000000000
vt 0.79137498140335 0.46418297290802 0.00000000000000
vt 0.86297297477722 0.19570198655128 0.00000000000000
vt 0.85036200284958 0.18887099623680 0.00000000000000
vt 0.84053397178650 0.20109599828720 0.00000000000000
vt 0.85058301687241 0.20881798863411 0.00000000000000
vt 0.87224000692368 0.18265098333359 0.00000000000000
vt 0.85827100276947 0.17660298943520 0.00000000000000
vt 0.00999999977648 0.63648092746735 0.00000000000000
vt 0.77718800306320 0.47468799352646 0.00000000000000
vt 0.78784900903702 0.47898298501968 0.00000000000000
vt 0.79955202341080 0.48303896188736 0.00000000000000
vt 0.81295901536942 0.48794400691986 0.00000000000000
vt 0.07195100188255 0.19206300377846 0.00000000000000
vt 0.08565100282431 0.18581700325012 0.00000000000000
vt 0.08232799917459 0.17372998595238 0.00000000000000
vt 0.06788200139999 0.17844200134277 0.00000000000000
vt 0.07702299952507 0.20285299420357 0.00000000000000
vt 0.08963199704885 0.19636100530624 0.00000000000000
vt 0.10068500041962 0.65818595886230 0.00000000000000
vt 0.11700800061226 0.65811097621918 0.00000000000000
vt 0.13439600169659 0.65995800495148 0.00000000000000
vt 0.15188199281693 0.66391897201538 0.00000000000000
vt 0.04992600157857 0.67703092098236 0.00000000000000
vt 0.76847100257874 0.38612800836563 0.00000000000000
vt 0.04037899896502 0.68240499496460 0.00000000000000
vt 0.03101499937475 0.68672001361847 0.00000000000000
vt 0.82924997806549 0.21221998333931 0.00000000000000
vt 0.83714300394058 0.21978998184204 0.00000000000000
vt 0.76449102163315 0.40185397863388 0.00000000000000
vt 0.76266300678253 0.43098300695419 0.00000000000000
vt 0.76249700784683 0.44420200586319 0.00000000000000
vt 0.76306599378586 0.41702800989151 0.00000000000000
vt 0.76115602254868 0.45617300271988 0.00000000000000
vt 0.76743102073669 0.47043401002884 0.00000000000000
vt 0.75841999053955 0.46697300672531 0.00000000000000
vt 0.10337299853563 0.22140899300575 0.00000000000000
vt 0.09868100285530 0.21386900544167 0.00000000000000
vt 0.08852999657393 0.22002300620079 0.00000000000000
vt 0.09448499977589 0.22693499922752 0.00000000000000
vt 0.09399999678135 0.20554098486900 0.00000000000000
vt 0.08263500034809 0.21207100152969 0.00000000000000
# 114 texture coordinates

o caudate:head
usemtl Default
f 83/4/1 93/3/2 82/2/3 84/1/4
f 91/7/5 82/2/3 78/6/6 90/5/7
f 82/2/3 93/3/2 79/8/8 78/6/6
f 80/12/9 81/11/10 78/10/6 79/9/8
f 82/2/3 91/7/5 77/13/11 84/1/4
f 85/15/12 91/7/5 90/5/7 75/14/13
f 76/19/14 75/18/13 90/17/7 74/16/15
f 78/10/6 81/11/10 74/16/15 90/17/7
f 81/11/10 72/21/16 71/20/17 74/16/15
f 72/21/16 81/11/10 80/12/9 68/22/18
f 69/24/19 68/22/18 80/12/9 67/23/20
f 80/12/9 79/9/8 66/25/21 67/23/20
f 83/4/1 73/27/22 65/26/23 93/3/2
f 73/27/22 89/29/24 92/28/25 65/26/23
f 79/8/8 93/3/2 65/26/23 66/30/21
f 86/32/26 92/28/25 89/29/24 64/31/27
f 61/36/28 62/35/29 63/34/30 60/33/31
f 69/24/19 67/23/20 60/33/31 63/34/30
f 66/30/21 65/26/23 92/28/25 59/37/32
f 86/32/26 87/38/33 59/37/32 92/28/25
f 87/40/33 61/36/28 60/33/31 59/39/32
f 67/23/20 66/25/21 59/39/32 60/33/31
f 58/42/34 61/36/28 87/40/33 57/41/35
f 86/32/26 88/44/36 57/43/35 87/38/33
f 75/18/13 76/19/14 56/46/37 55/45/38
f 77/13/11 91/7/5 85/15/12 53/47/39
f 53/47/39 85/15/12 52/49/40 54/48/41
f 85/15/12 75/14/13 55/50/38 52/49/40
f 74/16/15 71/20/17 48/51/42 76/19/14
f 56/46/37 76/19/14 48/51/42 49/52/43
f 49/52/43 48/51/42 45/54/44 46/53/45
f 72/21/16 68/22/18 70/56/46 44/55/47
f 45/54/44 48/51/42 71/20/17 42/57/48
f 71/20/17 72/21/16 44/55/47 42/57/48
f 47/58/49 45/54/44 42/57/48 44/55/47
f 89/29/24 73/27/22 36/60/50 37/59/51
f 73/27/22 83/4/1 50/61/52 36/60/50
f 44/55/47 70/56/46 35/62/53 47/58/49
f 34/64/54 35/62/53 70/56/46 33/63/55
f 68/22/18 69/24/19 33/63/55 70/56/46
f 88/44/36 86/32/26 64/31/27 32/65/56
f 32/65/56 31/67/57 29/66/58 88/44/36
f 28/69/59 34/64/54 33/63/55 27/68/60
f 69/24/19 63/34/30 27/68/60 33/63/55
f 63/34/30 62/35/29 25/70/61 27/68/60
f 28/69/59 27/68/60 25/70/61 26/71/62
f 26/71/62 25/70/61 22/73/63 23/72/64
f 22/73/63 25/70/61 62/35/29 19/74/65
f 62/35/29 61/36/28 58/42/34 19/74/65
f 31/78/57 24/77/66 17/76/67 29/75/58
f 29/75/58 17/76/67 14/80/68 9/79/69
f 88/44/36 29/66/58 9/81/69 57/43/35
f 22/73/63 19/74/65 6/83/70 7/82/71
f 58/42/34 57/41/35 9/85/69 5/84/72
f 9/89/69 14/88/68 18/87/73 5/86/72
f 18/87/73 8/91/74 6/90/70 5/86/72
f 19/74/65 58/42/34 5/84/72 6/83/70
f 83/4/1 84/1/4 4/92/75 50/61/52
f 77/13/11 53/47/39 51/94/76 3/93/77
f 84/1/4 77/13/11 3/93/77 4/92/75
f 53/47/39 54/48/41 2/95/78 51/94/76
f 64/31/27 89/29/24 37/59/51 43/96/79
f 46/53/45 45/54/44 47/58/49 41/97/80
f 32/65/56 64/31/27 43/96/79 40/98/81
f 31/67/57 32/65/56 40/98/81 39/99/82
f 24/77/66 31/78/57 39/101/82 38/100/83
f 41/97/80 47/58/49 35/62/53 30/102/84
f 28/69/59 26/71/62 21/104/85 1/103/86
f 30/102/84 35/62/53 34/64/54 20/105/87
f 34/64/54 28/69/59 1/103/86 20/105/87
f 26/71/62 23/72/64 16/106/88 21/104/85
f 22/73/63 7/82/71 15/107/89 23/72/64
f 23/72/64 15/107/89 12/108/90 16/106/88
f 12/112/90 15/111/89 11/110/91 13/109/92
f 7/114/71 6/90/70 8/91/74 10/113/93
f 15/111/89 7/114/71 10/113/93 11/110/91

